<?xml version="1.0" encoding="UTF-8"?>
<!DOCTYPE svg PUBLIC "-//W3C//DTD SVG 1.1//EN" "http://www.w3.org/Graphics/SVG/1.1/DTD/svg11.dtd">
<!-- Creator: CorelDRAW 2017 -->
<svg xmlns="http://www.w3.org/2000/svg" xml:space="preserve" width="8.26389in" height="11.6806in" version="1.1" style="shape-rendering:geometricPrecision; text-rendering:geometricPrecision; image-rendering:optimizeQuality; fill-rule:evenodd; clip-rule:evenodd"
viewBox="0 0 8263.89 11680.55"
 xmlns:xlink="http://www.w3.org/1999/xlink">
 <defs>
  <style type="text/css">
   <![CDATA[
    .str0 {stroke:#FEFEFE;stroke-width:20;stroke-miterlimit:22.9256}
    .str1 {stroke:#FEFEFE;stroke-width:135.04;stroke-miterlimit:22.9256}
    .fil3 {fill:none}
    .fil2 {fill:none;fill-rule:nonzero}
    .fil0 {fill:#FFD80E}
    .fil1 {fill:#2E2755;fill-rule:nonzero}
   ]]>
  </style>
 </defs>
 <g id="Layer_x0020_1">
  <metadata id="CorelCorpID_0Corel-Layer"/>
  <path class="fil0" d="M5205.67 5212.84c99.31,7.77 166.83,112.37 150.87,233.58 -15.96,121.22 -109.37,213.22 -208.68,205.44 -99.31,-7.77 -166.83,-112.37 -150.87,-233.58 15.96,-121.21 109.37,-213.21 208.68,-205.44z"/>
  <path class="fil0 str0" d="M5127.3 5640.52c-88.84,-6.96 -149.24,-100.52 -134.96,-208.95 14.28,-108.43 97.83,-190.73 186.67,-183.77 88.84,6.95 149.24,100.52 134.96,208.95 -14.28,108.43 -97.83,190.72 -186.67,183.77z"/>
  <path class="fil0" d="M4491 5212.84c-99.31,7.77 -166.83,112.37 -150.87,233.58 15.96,121.22 109.37,213.22 208.68,205.44 99.31,-7.77 166.83,-112.37 150.87,-233.58 -15.96,-121.21 -109.37,-213.21 -208.68,-205.44z"/>
  <path class="fil0 str0" d="M4517.67 5247.8c-88.84,6.96 -149.24,100.52 -134.96,208.95 14.28,108.43 97.83,190.73 186.67,183.77 88.84,-6.95 149.24,-100.52 134.96,-208.95 -14.28,-108.43 -97.83,-190.72 -186.67,-183.77z"/>
  <path class="fil1" d="M1085.52 6371.68m59.5 -1946.21c0,14.88 7.44,27.27 24.79,37.19 14.88,7.44 34.71,12.4 54.54,12.4l257.84 0c44.63,0 76.86,9.92 99.17,29.75 17.35,17.35 24.8,34.71 24.8,57.02 0,12.4 -7.44,47.11 -24.8,101.65l-426.43 1269.38 -49.59 141.31c-12.39,39.67 -19.83,74.38 -19.83,104.13 0,37.19 9.92,71.9 29.75,104.13 39.67,64.46 104.13,99.17 188.43,99.17l808.23 0c49.59,0 76.86,-19.83 79.34,-54.54 0,-19.83 -9.92,-34.71 -27.27,-47.11 -17.35,-12.4 -39.67,-17.35 -61.98,-17.35l-476.02 0c-59.5,0 -99.17,-17.35 -119,-49.59 -7.44,-12.39 -12.39,-29.75 -12.39,-47.11 0,-17.35 9.92,-49.58 27.27,-101.65l456.18 -1269.38 99.17 -270.24c2.48,-7.44 7.44,-19.83 19.83,-42.15 9.92,-22.31 14.87,-39.67 14.87,-52.06 0,-12.4 -2.48,-22.31 -9.91,-29.75 -14.88,-19.83 -52.07,-29.75 -109.09,-29.75l-778.48 0c-17.35,0 -34.71,4.96 -47.1,14.88 -14.88,9.92 -22.31,22.31 -22.31,39.67z"/>
  <path class="fil1" d="M2248.28 6371.68m7.44 -89.25c-4.96,12.39 -7.44,24.79 -7.44,42.15 0,27.27 9.92,44.63 32.23,54.54 4.96,2.48 12.39,4.96 22.31,4.96 17.35,0 32.23,-4.96 47.11,-17.35 14.88,-12.4 24.79,-27.27 29.75,-44.63l104.13 -309.91c7.44,-22.31 27.27,-42.15 61.98,-57.02 19.83,-7.44 49.58,-9.91 89.25,-9.91l401.64 -4.96c52.07,0 81.81,4.96 94.21,12.4 7.44,4.96 12.4,9.92 17.35,17.35 2.48,7.44 7.44,17.35 12.4,29.75 4.96,9.91 7.44,19.83 9.92,27.27l116.52 235.53c17.35,34.71 42.15,59.5 74.38,79.33 32.23,19.83 69.42,29.75 106.61,29.75 29.75,0 64.46,-7.44 96.69,-19.83 34.71,-17.35 64.46,-44.63 84.29,-79.33 19.83,-32.23 29.75,-71.9 29.75,-111.57 0,-29.75 -4.96,-57.02 -14.87,-84.3l-473.54 -1269.37 -119 -314.87c-12.39,-44.63 -27.27,-76.86 -39.67,-99.17 -14.88,-22.31 -37.19,-32.23 -66.94,-32.23 -14.87,0 -27.27,4.96 -37.19,12.4 -9.92,7.44 -19.83,17.35 -24.79,32.23 -7.44,12.39 -12.4,29.75 -19.83,52.06 -4.96,19.83 -9.92,34.71 -12.4,44.63l-436.35 1269.37 -178.51 510.73zm463.62 -932.2c14.87,-39.67 27.27,-69.42 42.15,-89.25 12.4,-19.83 34.71,-29.75 64.46,-29.75 14.88,2.48 24.8,7.44 32.23,17.36 9.92,9.91 17.35,24.79 24.79,47.1 7.44,22.31 12.4,34.71 12.4,34.71l156.19 354.53c7.44,14.87 9.92,32.23 9.92,52.06 0,17.35 -2.48,32.23 -9.92,44.63 -14.88,29.75 -44.63,44.63 -89.26,44.63l-302.47 -2.48c-24.79,0 -44.63,-19.83 -61.98,-57.02 -7.44,-12.4 -9.92,-29.75 -9.92,-47.11 0,-22.31 4.96,-44.63 12.4,-64.46l119 -304.95z"/>
  <g id="_2143953826176">
   <path class="fil1" d="M4780.22 6371.68m0 -210.74c0,39.67 -12.4,74.38 -34.71,109.09 -22.31,32.23 -54.54,57.02 -94.21,76.86 -39.67,17.35 -81.81,27.27 -128.92,27.27 -54.54,-4.96 -104.13,-27.27 -143.8,-64.46 -39.67,-37.19 -59.5,-81.81 -59.5,-133.88l-4.96 -282.63c0,-66.94 -12.39,-101.65 -39.67,-104.13 -19.83,-2.48 -54.54,-7.44 -104.13,-9.92 -47.11,-2.48 -89.25,-7.44 -126.44,-12.4 -37.19,-7.44 -71.9,-19.83 -106.61,-37.19 -76.86,-42.15 -136.36,-84.3 -178.51,-123.96 -39.67,-39.67 -59.5,-91.73 -59.5,-153.72l0 -696.67c0,-106.61 44.63,-188.42 136.36,-250.4 89.25,-64.46 198.34,-101.65 324.78,-116.53 32.23,-2.48 59.5,-4.96 76.86,-4.96 91.73,0 178.5,17.35 260.32,52.06 84.3,37.19 153.72,86.78 203.3,151.24 52.07,66.94 79.34,141.31 79.34,228.09l0 1269.37 0 76.86zm-143.8 -1380.94c0,-66.94 -22.31,-121.48 -66.94,-168.59 -44.63,-47.11 -99.17,-71.9 -166.11,-74.38 -74.38,0 -136.36,22.31 -185.94,69.42 -52.06,49.58 -76.86,106.61 -76.86,173.55l-4.96 652.04c0,57.02 22.31,104.13 64.46,141.31 42.15,37.19 94.21,59.5 153.71,66.94 79.33,0 146.28,-19.83 198.34,-57.02 52.07,-37.19 79.34,-86.78 79.34,-146.28l4.96 -657z"/>
   <path class="fil1" d="M4955.84 6371.68m0 -210.74c0,39.67 12.4,74.38 34.71,109.09 22.31,32.23 54.54,57.02 94.21,76.86 39.67,17.35 81.81,27.27 128.92,27.27 54.54,-4.96 104.13,-27.27 143.8,-64.46 39.67,-37.19 59.5,-81.81 59.5,-133.88l4.96 -282.63c0,-66.94 12.39,-101.65 39.67,-104.13 19.83,-2.48 54.54,-7.44 104.13,-9.92 47.11,-2.48 89.25,-7.44 126.44,-12.4 37.19,-7.44 71.9,-19.83 106.61,-37.19 76.86,-42.15 136.36,-84.3 178.51,-123.96 39.67,-39.67 59.5,-91.73 59.5,-153.72l0 -696.67c0,-106.61 -44.63,-188.42 -136.36,-250.4 -89.25,-64.46 -198.34,-101.65 -324.78,-116.53 -32.23,-2.48 -59.5,-4.96 -76.86,-4.96 -91.73,0 -178.5,17.35 -260.32,52.06 -84.3,37.19 -153.72,86.78 -203.3,151.24 -52.07,66.94 -79.34,141.31 -79.34,228.09l0 1269.37 0 76.86zm143.8 -1380.94c0,-66.94 22.31,-121.48 66.94,-168.59 44.63,-47.11 99.17,-71.9 166.11,-74.38 74.38,0 136.36,22.31 185.94,69.42 52.06,49.58 76.86,106.61 76.86,173.55l4.96 652.04c0,57.02 -22.31,104.13 -64.46,141.31 -42.15,37.19 -94.21,59.5 -153.71,66.94 -79.33,0 -146.28,-19.83 -198.34,-57.02 -52.07,-37.19 -79.34,-86.78 -79.34,-146.28l-4.96 -657z"/>
  </g>
  <path class="fil1" d="M6209.93 6371.68m297.51 -949.55c2.48,9.92 7.44,19.83 14.87,34.71 4.96,12.39 9.92,24.79 9.92,34.71 9.92,49.59 14.87,81.81 14.87,99.17l-4.96 614.85c0,54.54 22.31,99.17 66.94,133.88 44.63,37.19 94.21,54.54 151.23,54.54 54.54,0 101.65,-17.36 138.84,-52.07 39.67,-34.71 59.5,-76.85 59.5,-126.44l4.96 -709.07 0 -52.06c0,-17.35 7.44,-37.19 17.35,-61.98 9.92,-22.31 17.35,-37.19 17.35,-39.67l307.43 -885.09c0,-49.59 -12.4,-79.34 -39.67,-89.26 -44.63,0 -74.38,27.28 -89.25,79.34l-198.34 565.27c-14.87,47.11 -39.67,74.38 -74.38,81.81 -29.75,0 -54.54,-12.39 -71.9,-34.71 -17.35,-22.31 -34.71,-54.54 -52.06,-96.69l-213.22 -505.77c-24.79,-57.02 -71.9,-84.3 -146.28,-84.3 -39.67,0 -74.38,7.44 -106.61,24.79 -32.23,17.35 -57.02,42.15 -76.86,71.9 -17.35,32.23 -27.27,66.94 -27.27,104.13 0,27.27 4.96,54.54 14.88,81.81l282.63 756.17z"/>
  <path class="fil2 str1" d="M5841.32 6113.66c-21.17,-8.59 -25.37,7.19 -53.24,34.65 -40.45,39.83 -100.57,91.6 -147.26,125.11 -67.17,48.22 -143.33,95.98 -231.33,133.72 -186.83,80.14 -389.78,122.67 -619.22,103.73 -265.17,-21.87 -469.52,-112.2 -659.91,-252.33 -63.57,-46.79 -94.11,-78.93 -145.5,-129.65 -7.18,-7.07 -16.52,-20.44 -28.4,-17.93 -15.98,3.37 -8.29,22 -4.46,31.76 17.42,44.55 36.55,84 58.61,121.19 156.85,264.44 526.94,506.3 989.77,461.79 105.69,-10.16 206.35,-34.38 296.36,-69.06 140.72,-54.21 234.3,-117.26 336.74,-210.78 31.04,-28.33 57.96,-60.25 86.93,-95.59 30.58,-37.33 134.5,-196.01 120.92,-236.61z"/>
  <path class="fil3 str1" d="M5780.21 6017.15c-20.33,3.96 -82.91,18.05 -70.72,42.94 5.94,12.14 72.26,23.31 90.72,29.32 43.43,14.15 82.56,36.28 114.58,65.28 20.45,18.52 86.01,107.2 74.11,9.56 -11.24,-92.14 -110.6,-166.21 -208.69,-147.1z"/>
  <path class="fil3 str1" d="M3946.2 6018.14c-149.92,28.78 -171.25,203.63 -127.39,190.5 5.71,-1.71 51.75,-50.57 61.72,-58.52 53.95,-43.04 88.44,-58.78 161.85,-75.05 15.5,-3.45 36.46,-5.54 38.62,-18.81 2.55,-15.67 -17.83,-22.19 -31.16,-27.78 -30.25,-12.7 -68.52,-17.07 -103.65,-10.34z"/>
  <g id="_2143953824384">
   <path class="fil0" d="M5581.07 6251.42c-15.94,-6.46 -19.11,5.42 -40.09,26.09 -30.46,30 -75.74,68.98 -110.9,94.22 -50.58,36.31 -107.94,72.28 -174.21,100.7 -140.7,60.35 -293.54,92.38 -466.32,78.12 -199.7,-16.47 -353.58,-84.5 -496.96,-190.02 -47.87,-35.24 -70.87,-59.44 -109.57,-97.63 -5.41,-5.33 -12.44,-15.4 -21.39,-13.5 -12.03,2.54 -6.24,16.57 -3.36,23.92 13.12,33.55 27.53,63.26 44.14,91.26 118.12,199.15 396.82,381.28 745.37,347.76 79.59,-7.66 155.4,-25.89 223.18,-52 105.98,-40.83 176.44,-88.31 253.59,-158.74 23.37,-21.34 43.65,-45.37 65.46,-71.99 23.03,-28.11 101.29,-147.61 91.07,-178.19z"/>
   <path class="fil0" d="M5535.05 6178.74c-15.31,2.98 -62.44,13.59 -53.26,32.34 4.47,9.14 54.42,17.55 68.31,22.08 32.71,10.66 62.18,27.32 86.3,49.17 15.4,13.94 64.77,80.73 55.81,7.19 -8.46,-69.39 -83.29,-125.17 -157.16,-110.78z"/>
   <path class="fil0" d="M4153.91 6179.48c-112.91,21.68 -128.97,153.35 -95.93,143.47 4.3,-1.29 38.97,-38.08 46.48,-44.07 40.63,-32.42 66.61,-44.27 121.88,-56.52 11.68,-2.59 27.46,-4.17 29.08,-14.17 1.92,-11.8 -13.43,-16.71 -23.46,-20.92 -22.78,-9.57 -51.61,-12.86 -78.05,-7.79z"/>
  </g>
  <path class="fil1" d="M988.59 7197.71m205.15 -124.76c0,-10.85 -4.93,-17.26 -14.3,-19.72 -1.48,-0.5 -10.85,-0.5 -28.11,-0.5l-57.2 0c-33.54,0 -57.2,-3.45 -70.52,-9.86 -23.18,-11.34 -35.01,-34.03 -35.01,-69.04l0 -25.15c0,-35.01 11.83,-57.7 35.01,-69.04 13.31,-6.41 36.98,-9.86 70.52,-9.86l57.2 0c33.53,0 57.2,3.45 70.52,9.86 23.18,11.34 35.01,34.03 35.01,69.04l0 18.74 -63.12 0 0 -45.86c0,-10.85 -4.93,-17.26 -14.3,-19.72 -1.48,-0.5 -10.85,-0.5 -28.11,-0.5l-57.2 0c-18.74,0 -30.08,0.99 -34.03,2.47 -5.43,2.46 -8.38,8.38 -8.38,17.75l0 79.89c0,10.85 4.93,17.26 14.8,19.23 1.48,0.49 10.85,0.49 27.61,0.49l57.2 0c33.53,0 57.2,3.45 70.52,9.86 23.18,11.34 35.01,34.03 35.01,69.04l0 18.74c0,35.01 -11.83,57.7 -35.01,69.04 -13.31,6.41 -36.99,9.86 -70.52,9.86l-57.2 0c-33.54,0 -57.2,-3.45 -70.52,-9.86 -23.18,-11.34 -35.01,-34.03 -35.01,-69.04l63.12 0 0 27.61c0,10.85 4.93,17.26 14.8,19.23 1.48,0.5 10.85,0.5 27.61,0.5l57.2 0c19.23,0 30.57,-0.99 34.52,-2.47 5.43,-2.46 7.89,-7.89 7.89,-17.26l0 -73.48zm110.46 124.76m205.15 -78.9l63.12 0c0,35.01 -11.83,57.7 -35.01,69.04 -13.31,6.41 -36.98,9.86 -70.52,9.86l-57.2 0c-33.53,0 -57.2,-3.45 -70.52,-9.86 -23.18,-11.34 -35.01,-34.03 -35.01,-69.04l0 -170.13c0,-35.01 11.83,-57.7 35.01,-69.04 13.31,-6.41 36.99,-9.86 70.52,-9.86l57.2 0c33.54,0 57.2,3.45 70.52,9.86 23.18,11.34 35.01,34.03 35.01,69.04l0 18.74 -63.12 0 0 -45.86c0,-10.85 -4.93,-17.26 -14.3,-19.72 -1.48,-0.5 -10.85,-0.5 -28.11,-0.5l-57.2 0c-18.74,0 -30.08,0.99 -34.03,2.47 -5.42,2.46 -8.38,8.38 -8.38,17.75l0 224.87c0,10.85 4.93,17.26 14.8,19.23 1.48,0.5 10.85,0.5 27.61,0.5l57.2 0c19.23,0 30.57,-0.99 34.52,-2.47 5.43,-2.46 7.89,-7.89 7.89,-17.26l0 -27.61zm100.6 78.9m105.53 0c-33.54,0 -57.2,-3.45 -70.52,-9.86 -23.18,-11.34 -35.01,-34.03 -35.01,-69.04l0 -18.74c0,-35.01 11.83,-57.7 35.01,-69.04 13.31,-6.41 36.98,-9.86 70.52,-9.86l99.61 0 0 -99.61c0,-10.85 -4.93,-17.26 -14.3,-19.72 -1.48,-0.5 -10.85,-0.5 -28.11,-0.5l-57.2 0c-18.74,0 -30.08,0.99 -34.03,2.47 -5.43,2.46 -8.38,8.38 -8.38,17.75l0 45.86 -63.12 0 0 -18.74c0,-35.01 11.83,-57.7 35.01,-69.04 13.31,-6.41 36.98,-9.86 70.52,-9.86l57.2 0c33.53,0 57.2,3.45 70.52,9.86 23.18,11.34 35.02,34.03 35.02,69.04l0 249.04 -162.74 0zm0 -144.98c-18.74,0 -30.08,0.99 -34.03,2.47 -5.43,2.46 -8.38,8.38 -8.38,17.75l0 73.48c0,10.85 4.93,17.26 14.79,19.23 1.48,0.5 10.85,0.5 27.62,0.5l99.61 0 0 -113.43 -99.61 0zm219.94 144.98m63.12 0l-63.12 0 0 -327.94 162.74 0c33.53,0 57.2,3.45 70.52,9.86 23.18,11.34 35.02,34.03 35.02,69.04l0 249.04 -63.12 0 0 -276.16c0,-10.85 -4.93,-17.26 -14.3,-19.72 -1.48,-0.5 -10.85,-0.5 -28.11,-0.5l-99.61 0 0 296.38zm251.99 0m0 -32.06c0,8.88 3.45,16.28 9.37,22.69 6.41,6.41 13.81,9.37 22.69,9.37l2.96 0 -7.4 22.19c-0.99,3.45 -0.5,6.41 1.48,9.37 1.48,2.47 4.44,3.95 7.89,3.95 4.93,0 7.89,-2.47 9.37,-7.4 2.47,-6.41 6.41,-17.26 11.34,-32.55l5.43 -15.78c0.99,-2.96 1.48,-4.93 1.48,-6.41l0 -5.43c0,-8.87 -2.96,-16.76 -9.37,-23.18 -6.41,-6.41 -14.3,-9.37 -23.18,-9.37 -8.88,0 -16.27,2.96 -22.69,9.37 -5.92,6.41 -9.37,14.3 -9.37,23.18zm365.91 32.06m0 -69.04l0 -180c0,-35.01 11.83,-57.7 35.01,-69.04 13.31,-6.41 36.98,-9.86 70.52,-9.86l57.2 0c33.53,0 57.2,3.45 70.52,9.86 23.18,11.34 35.01,34.03 35.01,69.04l0 170.13c0,35.01 -11.83,57.7 -35.01,69.04 -13.31,6.41 -36.99,9.86 -70.52,9.86l-57.2 0c-31.56,0 -54.24,-2.96 -67.56,-8.88 -25.15,-11.34 -37.97,-31.07 -37.97,-60.16zm205.15 -207.12c0,-10.85 -4.93,-17.26 -14.3,-19.72 -1.48,-0.5 -10.85,-0.5 -28.11,-0.5l-57.2 0c-18.74,0 -30.08,0.99 -34.03,2.47 -5.43,2.46 -8.38,8.38 -8.38,17.75l0 224.87c0,10.85 4.93,17.26 14.8,19.23 1.48,0.5 10.85,0.5 27.61,0.5l57.2 0c19.23,0 30.57,-0.99 34.52,-2.47 5.43,-2.46 7.89,-7.89 7.89,-17.26l0 -224.87zm119.34 276.16m63.12 0l-63.12 0 0 -327.94 113.43 0c33.53,0 57.2,3.45 70.52,9.86 23.18,11.34 35.02,34.03 35.02,69.04l0 19.23 -63.12 0 0 -46.35c0,-10.85 -4.93,-17.26 -14.3,-19.72 -1.48,-0.5 -10.85,-0.5 -28.11,-0.5l-50.3 0 0 296.38zm183.94 0m105.53 0l162.74 0 0 -437.91 -63.12 0 0 109.97 -99.61 0c-33.54,0 -56.71,3.45 -70.52,9.86 -23.18,11.34 -35.01,34.03 -35.01,69.04l0 170.13c0,35.01 11.83,57.7 35.01,69.04 13.81,6.41 36.98,9.86 70.52,9.86zm99.61 -31.56l-99.61 0c-18.74,0 -30.08,-0.99 -34.03,-2.47 -5.43,-2.46 -8.38,-7.89 -8.38,-17.26l0 -224.87c0,-10.85 4.93,-17.26 14.3,-19.72 1.48,-0.5 10.85,-0.5 28.11,-0.5l99.61 0 0 264.82zm120.33 31.56m162.74 -327.94c33.53,0 57.2,3.45 70.52,9.86 23.18,11.34 35.02,34.03 35.02,69.04l0 104.05 -205.15 0 0 93.7c0,10.85 4.93,17.26 14.79,19.23 1.48,0.5 10.85,0.5 27.62,0.5l57.2 0c19.23,0 30.57,-0.99 34.52,-2.47 5.42,-2.46 7.89,-7.89 7.89,-17.26l0 -27.61 63.12 0c0,35.01 -11.84,57.7 -35.02,69.04 -13.31,6.41 -36.98,9.86 -70.52,9.86l-57.2 0c-33.54,0 -57.2,-3.45 -70.52,-9.86 -23.18,-11.34 -35.01,-34.03 -35.01,-69.04l0 -170.13c0,-35.01 11.83,-57.7 35.01,-69.04 13.31,-6.41 36.98,-9.86 70.52,-9.86l57.2 0zm-99.61 151.39l142.02 0 0 -99.61c0,-10.85 -4.93,-17.26 -14.3,-19.72 -1.48,-0.5 -10.85,-0.5 -28.11,-0.5l-57.2 0c-18.74,0 -30.08,0.99 -34.03,2.47 -5.43,2.46 -8.38,8.38 -8.38,17.75l0 99.61zm254.46 176.54m63.12 0l-63.12 0 0 -327.94 113.43 0c33.53,0 57.2,3.45 70.52,9.86 23.18,11.34 35.02,34.03 35.02,69.04l0 19.23 -63.12 0 0 -46.35c0,-10.85 -4.93,-17.26 -14.3,-19.72 -1.48,-0.5 -10.85,-0.5 -28.11,-0.5l-50.3 0 0 296.38zm181.48 0m0 -32.06c0,8.88 3.45,16.28 9.37,22.69 6.41,6.41 13.81,9.37 22.69,9.37l2.96 0 -7.4 22.19c-0.99,3.45 -0.5,6.41 1.48,9.37 1.48,2.47 4.44,3.95 7.89,3.95 4.93,0 7.89,-2.47 9.37,-7.4 2.47,-6.41 6.41,-17.26 11.34,-32.55l5.43 -15.78c0.99,-2.96 1.48,-4.93 1.48,-6.41l0 -5.43c0,-8.87 -2.96,-16.76 -9.37,-23.18 -6.41,-6.41 -14.3,-9.37 -23.18,-9.37 -8.88,0 -16.27,2.96 -22.69,9.37 -5.92,6.41 -9.37,14.3 -9.37,23.18z"/>
  <path class="fil1" d="M5216.23 7197.71m0 -32.06c0,8.88 3.45,16.28 9.37,22.69 6.41,6.41 13.81,9.37 22.69,9.37l2.96 0 -7.4 22.19c-0.99,3.45 -0.5,6.41 1.48,9.37 1.48,2.47 4.44,3.95 7.89,3.95 4.93,0 7.89,-2.47 9.37,-7.4 2.47,-6.41 6.41,-17.26 11.34,-32.55l5.43 -15.78c0.99,-2.96 1.48,-4.93 1.48,-6.41l0 -5.43c0,-8.87 -2.96,-16.76 -9.37,-23.18 -6.41,-6.41 -14.3,-9.37 -23.18,-9.37 -8.88,0 -16.27,2.96 -22.69,9.37 -5.92,6.41 -9.37,14.3 -9.37,23.18zm366.9 32.06m63.12 0l-63.12 0 0 -327.94 113.43 0c33.53,0 57.2,3.45 70.52,9.86 23.18,11.34 35.02,34.03 35.02,69.04l0 19.23 -63.12 0 0 -46.35c0,-10.85 -4.93,-17.26 -14.3,-19.72 -1.48,-0.5 -10.85,-0.5 -28.11,-0.5l-50.3 0 0 296.38zm189.86 0m162.74 -327.94c33.53,0 57.2,3.45 70.52,9.86 23.18,11.34 35.02,34.03 35.02,69.04l0 104.05 -205.15 0 0 93.7c0,10.85 4.93,17.26 14.79,19.23 1.48,0.5 10.85,0.5 27.62,0.5l57.2 0c19.23,0 30.57,-0.99 34.52,-2.47 5.42,-2.46 7.89,-7.89 7.89,-17.26l0 -27.61 63.12 0c0,35.01 -11.84,57.7 -35.02,69.04 -13.31,6.41 -36.98,9.86 -70.52,9.86l-57.2 0c-33.54,0 -57.2,-3.45 -70.52,-9.86 -23.18,-11.34 -35.01,-34.03 -35.01,-69.04l0 -170.13c0,-35.01 11.83,-57.7 35.01,-69.04 13.31,-6.41 36.98,-9.86 70.52,-9.86l57.2 0zm-99.61 151.39l142.02 0 0 -99.61c0,-10.85 -4.93,-17.26 -14.3,-19.72 -1.48,-0.5 -10.85,-0.5 -28.11,-0.5l-57.2 0c-18.74,0 -30.08,0.99 -34.03,2.47 -5.43,2.46 -8.38,8.38 -8.38,17.75l0 99.61zm247.06 176.54m162.73 -327.94l-162.73 0 0 437.41 63.12 0 0 -109.48 99.61 0c33.54,0 57.2,-3.45 70.52,-9.86 23.67,-11.34 35.02,-34.03 35.02,-69.04l0 -170.13c0,-35.01 -11.34,-57.7 -35.02,-69.04 -13.31,-6.41 -36.98,-9.86 -70.52,-9.86zm-99.61 31.56l99.61 0c19.24,0 30.57,0.99 34.52,2.47 5.43,2.46 7.89,8.38 7.89,17.75l0 224.87c0,10.85 -4.93,17.26 -14.8,19.23 -1.48,0.5 -10.85,0.5 -27.62,0.5l-99.61 0 0 -264.82zm255.94 296.38m162.74 -327.94c33.53,0 57.2,3.45 70.52,9.86 23.18,11.34 35.02,34.03 35.02,69.04l0 104.05 -205.15 0 0 93.7c0,10.85 4.93,17.26 14.79,19.23 1.48,0.5 10.85,0.5 27.62,0.5l57.2 0c19.23,0 30.57,-0.99 34.52,-2.47 5.42,-2.46 7.89,-7.89 7.89,-17.26l0 -27.61 63.12 0c0,35.01 -11.84,57.7 -35.02,69.04 -13.31,6.41 -36.98,9.86 -70.52,9.86l-57.2 0c-33.54,0 -57.2,-3.45 -70.52,-9.86 -23.18,-11.34 -35.01,-34.03 -35.01,-69.04l0 -170.13c0,-35.01 11.83,-57.7 35.01,-69.04 13.31,-6.41 36.98,-9.86 70.52,-9.86l57.2 0zm-99.61 151.39l142.02 0 0 -99.61c0,-10.85 -4.93,-17.26 -14.3,-19.72 -1.48,-0.5 -10.85,-0.5 -28.11,-0.5l-57.2 0c-18.74,0 -30.08,0.99 -34.03,2.47 -5.43,2.46 -8.38,8.38 -8.38,17.75l0 99.61zm252.98 176.54m105.53 0c-33.54,0 -57.2,-3.45 -70.52,-9.86 -23.18,-11.34 -35.01,-34.03 -35.01,-69.04l0 -18.74c0,-35.01 11.83,-57.7 35.01,-69.04 13.31,-6.41 36.98,-9.86 70.52,-9.86l99.61 0 0 -99.61c0,-10.85 -4.93,-17.26 -14.3,-19.72 -1.48,-0.5 -10.85,-0.5 -28.11,-0.5l-57.2 0c-18.74,0 -30.08,0.99 -34.03,2.47 -5.43,2.46 -8.38,8.38 -8.38,17.75l0 45.86 -63.12 0 0 -18.74c0,-35.01 11.83,-57.7 35.01,-69.04 13.31,-6.41 36.98,-9.86 70.52,-9.86l57.2 0c33.53,0 57.2,3.45 70.52,9.86 23.18,11.34 35.02,34.03 35.02,69.04l0 249.04 -162.74 0zm0 -144.98c-18.74,0 -30.08,0.99 -34.03,2.47 -5.43,2.46 -8.38,8.38 -8.38,17.75l0 73.48c0,10.85 4.93,17.26 14.79,19.23 1.48,0.5 10.85,0.5 27.62,0.5l99.61 0 0 -113.43 -99.61 0zm212.05 144.98m0 -327.94l0 31.56 42.41 0 0 216c0,35.01 11.83,57.7 35.01,69.04 13.31,6.41 36.98,9.86 70.52,9.86l0 -31.56c-18.74,0 -30.08,-0.99 -34.03,-2.47 -5.43,-2.46 -8.38,-7.89 -8.38,-17.26l0 -243.61 42.41 0 0 -31.56 -42.41 0 0 -109.97 -63.12 0 0 109.97 -42.41 0z"/>
  <path class="fil1" d="M4439.44 7197.71m153.56 -309.44c31.64,0 53.98,3.26 66.54,9.31 21.87,10.7 33.04,32.11 33.04,65.14l0 98.19 -193.57 0 0 88.41c0,10.24 4.65,16.29 13.96,18.15 1.4,0.46 10.24,0.46 26.06,0.46l53.98 0c18.15,0 28.85,-0.93 32.57,-2.33 5.12,-2.33 7.44,-7.44 7.44,-16.29l0 -26.06 59.56 0c0,33.04 -11.17,54.44 -33.04,65.15 -12.56,6.05 -34.9,9.31 -66.54,9.31l-53.98 0c-31.64,0 -53.98,-3.26 -66.54,-9.31 -21.87,-10.7 -33.04,-32.11 -33.04,-65.15l0 -160.54c0,-33.04 11.17,-54.44 33.04,-65.14 12.57,-6.05 34.9,-9.31 66.54,-9.31l53.98 0zm-94 142.85l134.01 0 0 -94c0,-10.24 -4.65,-16.29 -13.49,-18.61 -1.4,-0.46 -10.24,-0.46 -26.52,-0.46l-53.98 0c-17.68,0 -28.39,0.93 -32.11,2.33 -5.12,2.33 -7.91,7.91 -7.91,16.75l0 94zm238.71 166.58m99.58 0c-31.64,0 -53.98,-3.26 -66.54,-9.31 -21.87,-10.7 -33.04,-32.11 -33.04,-65.15l0 -17.68c0,-33.04 11.17,-54.44 33.04,-65.15 12.57,-6.05 34.9,-9.3 66.54,-9.3l93.99 0 0 -94c0,-10.24 -4.65,-16.29 -13.49,-18.61 -1.4,-0.46 -10.24,-0.46 -26.52,-0.46l-53.98 0c-17.68,0 -28.39,0.93 -32.11,2.33 -5.12,2.33 -7.91,7.91 -7.91,16.75l0 43.28 -59.56 0 0 -17.69c0,-33.04 11.17,-54.44 33.04,-65.14 12.57,-6.05 34.9,-9.31 66.54,-9.31l53.98 0c31.64,0 53.98,3.26 66.54,9.31 21.87,10.7 33.04,32.11 33.04,65.14l0 234.99 -153.56 0zm0 -136.8c-17.68,0 -28.39,0.93 -32.11,2.33 -5.12,2.33 -7.91,7.91 -7.91,16.75l0 69.33c0,10.24 4.65,16.29 13.96,18.15 1.4,0.46 10.24,0.46 26.06,0.46l93.99 0 0 -107.02 -93.99 0zm200.09 136.8m0 -309.44l0 29.78 40.02 0 0 203.81c0,33.04 11.17,54.44 33.04,65.15 12.56,6.05 34.9,9.3 66.54,9.3l0 -29.78c-17.68,0 -28.39,-0.93 -32.11,-2.33 -5.12,-2.33 -7.91,-7.44 -7.91,-16.28l0 -229.87 40.02 0 0 -29.78 -40.02 0 0 -103.77 -59.56 0 0 103.77 -40.02 0z"/>
 </g>
</svg>
